<mxfile host="app.diagrams.net" modified="2024-05-16T19:28:06.435Z" agent="Mozilla/5.0 (Windows NT 10.0; Win64; x64; rv:125.0) Gecko/20100101 Firefox/125.0" etag="uM6UxQExw2KI6sbLDWf0" version="24.4.0" type="github">
  <diagram name="Page-1" id="bxQZDBZNoZInG_xoLFNa">
    <mxGraphModel dx="1222" dy="478" grid="1" gridSize="10" guides="1" tooltips="1" connect="1" arrows="1" fold="1" page="1" pageScale="1" pageWidth="850" pageHeight="1100" math="0" shadow="0">
      <root>
        <mxCell id="0" />
        <mxCell id="1" parent="0" />
        <mxCell id="yjAcMp0isC9UAt_LZoY8-9" style="edgeStyle=orthogonalEdgeStyle;rounded=0;orthogonalLoop=1;jettySize=auto;html=1;exitX=0.5;exitY=0;exitDx=0;exitDy=0;entryX=0.75;entryY=0;entryDx=0;entryDy=0;" edge="1" parent="1" source="yjAcMp0isC9UAt_LZoY8-3" target="yjAcMp0isC9UAt_LZoY8-6">
          <mxGeometry relative="1" as="geometry" />
        </mxCell>
        <mxCell id="yjAcMp0isC9UAt_LZoY8-11" style="edgeStyle=orthogonalEdgeStyle;rounded=0;orthogonalLoop=1;jettySize=auto;html=1;entryX=0.5;entryY=1;entryDx=0;entryDy=0;exitX=0.13;exitY=0.783;exitDx=0;exitDy=0;exitPerimeter=0;" edge="1" parent="1" source="yjAcMp0isC9UAt_LZoY8-3" target="yjAcMp0isC9UAt_LZoY8-6">
          <mxGeometry relative="1" as="geometry">
            <Array as="points">
              <mxPoint x="350" y="173" />
              <mxPoint x="350" y="250" />
              <mxPoint x="180" y="250" />
            </Array>
          </mxGeometry>
        </mxCell>
        <mxCell id="yjAcMp0isC9UAt_LZoY8-13" style="edgeStyle=orthogonalEdgeStyle;rounded=0;orthogonalLoop=1;jettySize=auto;html=1;entryX=1;entryY=0.5;entryDx=0;entryDy=0;exitX=0.5;exitY=1;exitDx=0;exitDy=0;" edge="1" parent="1" source="yjAcMp0isC9UAt_LZoY8-3" target="yjAcMp0isC9UAt_LZoY8-7">
          <mxGeometry relative="1" as="geometry">
            <mxPoint x="410" y="380" as="targetPoint" />
          </mxGeometry>
        </mxCell>
        <mxCell id="yjAcMp0isC9UAt_LZoY8-14" style="edgeStyle=orthogonalEdgeStyle;rounded=0;orthogonalLoop=1;jettySize=auto;html=1;entryX=0.5;entryY=0;entryDx=0;entryDy=0;exitX=0.978;exitY=0.348;exitDx=0;exitDy=0;exitPerimeter=0;" edge="1" parent="1" source="yjAcMp0isC9UAt_LZoY8-3" target="yjAcMp0isC9UAt_LZoY8-8">
          <mxGeometry relative="1" as="geometry">
            <Array as="points">
              <mxPoint x="480" y="138" />
              <mxPoint x="480" y="90" />
              <mxPoint x="660" y="90" />
            </Array>
          </mxGeometry>
        </mxCell>
        <mxCell id="yjAcMp0isC9UAt_LZoY8-16" style="edgeStyle=orthogonalEdgeStyle;rounded=0;orthogonalLoop=1;jettySize=auto;html=1;entryX=0.5;entryY=1;entryDx=0;entryDy=0;exitX=0.946;exitY=0.728;exitDx=0;exitDy=0;exitPerimeter=0;" edge="1" parent="1" source="yjAcMp0isC9UAt_LZoY8-3" target="yjAcMp0isC9UAt_LZoY8-8">
          <mxGeometry relative="1" as="geometry">
            <Array as="points">
              <mxPoint x="446" y="170" />
              <mxPoint x="480" y="170" />
              <mxPoint x="480" y="210" />
              <mxPoint x="660" y="210" />
            </Array>
          </mxGeometry>
        </mxCell>
        <mxCell id="yjAcMp0isC9UAt_LZoY8-3" value="Healthcare System" style="ellipse;whiteSpace=wrap;html=1;aspect=fixed;" vertex="1" parent="1">
          <mxGeometry x="370" y="110" width="80" height="80" as="geometry" />
        </mxCell>
        <mxCell id="yjAcMp0isC9UAt_LZoY8-5" value="" style="endArrow=none;html=1;rounded=0;entryX=0.068;entryY=0.238;entryDx=0;entryDy=0;entryPerimeter=0;exitX=0.912;exitY=0.235;exitDx=0;exitDy=0;exitPerimeter=0;" edge="1" parent="1" source="yjAcMp0isC9UAt_LZoY8-3" target="yjAcMp0isC9UAt_LZoY8-3">
          <mxGeometry width="50" height="50" relative="1" as="geometry">
            <mxPoint x="390" y="180" as="sourcePoint" />
            <mxPoint x="440" y="130" as="targetPoint" />
          </mxGeometry>
        </mxCell>
        <mxCell id="yjAcMp0isC9UAt_LZoY8-6" value="Admin" style="rounded=0;whiteSpace=wrap;html=1;" vertex="1" parent="1">
          <mxGeometry x="130" y="120" width="100" height="50" as="geometry" />
        </mxCell>
        <mxCell id="yjAcMp0isC9UAt_LZoY8-7" value="Doctor" style="rounded=0;whiteSpace=wrap;html=1;" vertex="1" parent="1">
          <mxGeometry x="240" y="350" width="100" height="50" as="geometry" />
        </mxCell>
        <mxCell id="yjAcMp0isC9UAt_LZoY8-8" value="Patient" style="rounded=0;whiteSpace=wrap;html=1;" vertex="1" parent="1">
          <mxGeometry x="610" y="120" width="100" height="50" as="geometry" />
        </mxCell>
        <mxCell id="yjAcMp0isC9UAt_LZoY8-12" style="rounded=0;orthogonalLoop=1;jettySize=auto;html=1;entryX=1;entryY=0.5;entryDx=0;entryDy=0;exitX=0;exitY=0.5;exitDx=0;exitDy=0;" edge="1" parent="1" source="yjAcMp0isC9UAt_LZoY8-3" target="yjAcMp0isC9UAt_LZoY8-6">
          <mxGeometry relative="1" as="geometry" />
        </mxCell>
        <mxCell id="yjAcMp0isC9UAt_LZoY8-15" style="edgeStyle=orthogonalEdgeStyle;rounded=0;orthogonalLoop=1;jettySize=auto;html=1;exitX=-0.052;exitY=0.6;exitDx=0;exitDy=0;exitPerimeter=0;" edge="1" parent="1" source="yjAcMp0isC9UAt_LZoY8-8" target="yjAcMp0isC9UAt_LZoY8-3">
          <mxGeometry relative="1" as="geometry" />
        </mxCell>
        <mxCell id="yjAcMp0isC9UAt_LZoY8-17" value="patient" style="text;html=1;align=center;verticalAlign=middle;whiteSpace=wrap;rounded=0;" vertex="1" parent="1">
          <mxGeometry x="270" y="60" width="60" height="30" as="geometry" />
        </mxCell>
        <mxCell id="yjAcMp0isC9UAt_LZoY8-20" value="Hospital info" style="text;html=1;align=center;verticalAlign=middle;whiteSpace=wrap;rounded=0;" vertex="1" parent="1">
          <mxGeometry x="260" y="150" width="60" height="30" as="geometry" />
        </mxCell>
        <mxCell id="yjAcMp0isC9UAt_LZoY8-21" value="Doctor info" style="text;html=1;align=center;verticalAlign=middle;whiteSpace=wrap;rounded=0;" vertex="1" parent="1">
          <mxGeometry x="240" y="250" width="60" height="30" as="geometry" />
        </mxCell>
        <mxCell id="yjAcMp0isC9UAt_LZoY8-22" value="doctor info" style="text;html=1;align=center;verticalAlign=middle;whiteSpace=wrap;rounded=0;" vertex="1" parent="1">
          <mxGeometry x="520" y="50" width="60" height="30" as="geometry" />
        </mxCell>
        <mxCell id="yjAcMp0isC9UAt_LZoY8-25" value="patient details" style="text;html=1;align=center;verticalAlign=middle;whiteSpace=wrap;rounded=0;" vertex="1" parent="1">
          <mxGeometry x="510" y="120" width="60" height="30" as="geometry" />
        </mxCell>
        <mxCell id="yjAcMp0isC9UAt_LZoY8-26" value="appointment info" style="text;html=1;align=center;verticalAlign=middle;whiteSpace=wrap;rounded=0;" vertex="1" parent="1">
          <mxGeometry x="540" y="210" width="60" height="30" as="geometry" />
        </mxCell>
        <mxCell id="yjAcMp0isC9UAt_LZoY8-27" value="patient details" style="text;html=1;align=center;verticalAlign=middle;whiteSpace=wrap;rounded=0;" vertex="1" parent="1">
          <mxGeometry x="410" y="290" width="60" height="30" as="geometry" />
        </mxCell>
        <mxCell id="yjAcMp0isC9UAt_LZoY8-29" style="edgeStyle=orthogonalEdgeStyle;rounded=0;orthogonalLoop=1;jettySize=auto;html=1;entryX=0.318;entryY=1.021;entryDx=0;entryDy=0;entryPerimeter=0;exitX=0.5;exitY=0;exitDx=0;exitDy=0;" edge="1" parent="1" source="yjAcMp0isC9UAt_LZoY8-7" target="yjAcMp0isC9UAt_LZoY8-3">
          <mxGeometry relative="1" as="geometry">
            <Array as="points">
              <mxPoint x="290" y="320" />
              <mxPoint x="395" y="320" />
            </Array>
          </mxGeometry>
        </mxCell>
        <mxCell id="yjAcMp0isC9UAt_LZoY8-30" value="doctor details" style="text;html=1;align=center;verticalAlign=middle;whiteSpace=wrap;rounded=0;" vertex="1" parent="1">
          <mxGeometry x="290" y="290" width="60" height="30" as="geometry" />
        </mxCell>
        <mxCell id="yjAcMp0isC9UAt_LZoY8-32" style="edgeStyle=orthogonalEdgeStyle;rounded=0;orthogonalLoop=1;jettySize=auto;html=1;entryX=0.656;entryY=0.006;entryDx=0;entryDy=0;entryPerimeter=0;exitX=0.5;exitY=0;exitDx=0;exitDy=0;" edge="1" parent="1" source="yjAcMp0isC9UAt_LZoY8-6" target="yjAcMp0isC9UAt_LZoY8-3">
          <mxGeometry relative="1" as="geometry">
            <Array as="points">
              <mxPoint x="180" y="40" />
              <mxPoint x="422" y="40" />
            </Array>
          </mxGeometry>
        </mxCell>
        <mxCell id="yjAcMp0isC9UAt_LZoY8-33" value="admin details" style="text;html=1;align=center;verticalAlign=middle;whiteSpace=wrap;rounded=0;" vertex="1" parent="1">
          <mxGeometry x="260" y="10" width="60" height="30" as="geometry" />
        </mxCell>
      </root>
    </mxGraphModel>
  </diagram>
</mxfile>
